<?xml version="1.0" standalone="no"?>
<!DOCTYPE svg PUBLIC "-//W3C//DTD SVG 1.1//EN" "http://www.w3.org/Graphics/SVG/1.1/DTD/svg11.dtd" >
<svg xmlns="http://www.w3.org/2000/svg">
<metadata></metadata>
<defs>
<font id="americanamedium" horiz-adv-x="318" >
<font-face units-per-em="1000" ascent="750" descent="-250" />
<missing-glyph horiz-adv-x="156" />
<glyph horiz-adv-x="0" />
<glyph horiz-adv-x="333" />
<glyph unicode=" "  horiz-adv-x="156" />
<glyph unicode="&#x09;" horiz-adv-x="156" />
<glyph unicode="&#xa0;" horiz-adv-x="156" />
<glyph unicode="!" horiz-adv-x="200" d="M149 99v-100h-100v100h100zM144 534l-8 -361h-73l-9 364v204h90v-207z" />
<glyph unicode="&#x22;" horiz-adv-x="311" d="M45 563v100q0 20 11 37q9 14 29.5 26t59.5 12v-19q-17 -1 -29 -7q-11 -5 -19.5 -16.5t-8.5 -33.5l57 1v-100h-100zM167 563v100q0 20 11 37q9 14 29.5 26t59.5 12v-19q-17 -1 -29 -7q-11 -5 -19.5 -16.5t-8.5 -33.5l57 1v-100h-100z" />
<glyph unicode="#" horiz-adv-x="612" d="M64 421v83l532 -1v-82h-532zM15 239v84h530v-84h-530zM64 0l199 741l94 -1l-199 -740h-94zM346 0h-94l199 741l94 -1z" />
<glyph unicode="$" horiz-adv-x="322" d="M23 551q0 30 2.5 64.5t16.5 63.5t43 48t82 18q37 0 61 -13t39 -33t22 -43.5t9 -44.5t2 -36.5v-18.5h-84q-2 28 -7 51q-5 20 -15 36t-28 16q-29 0 -44.5 -25t-13.5 -82q0 -28 8 -50.5t23.5 -43.5t38 -42.5t51.5 -48.5q31 -28 50.5 -66.5t27 -79.5t2.5 -81.5t-22.5 -72.5 t-47.5 -52t-72 -20q-21 0 -46 3t-48.5 21.5t-40.5 57.5t-21 111h89q7 -39 14.5 -61.5t15 -33.5t16 -13.5t19.5 -2.5q25 0 40.5 25t18 60.5t-8.5 73.5t-38 65q-37 33 -65.5 61.5t-48 57t-29.5 60t-11 71.5zM133 -58v847h56v-847h-56z" />
<glyph unicode="%" horiz-adv-x="538" d="M158 430q-39 0 -66 27.5t-27 66.5t27 66.5t66 27.5q19 0 36 -7.5t29.5 -20t20 -30t7.5 -36.5q0 -20 -7.5 -37t-20 -29.5t-29.5 -20t-36 -7.5zM158 569q-17 0 -30.5 -14t-13.5 -31q0 -19 14 -32.5t30 -12.5q15 0 29.5 12.5t14.5 32.5q0 19 -13 32t-31 13zM108 131l-52 45 l366 442l50 -43zM394 154q-39 0 -66 27.5t-27 66.5t27 66.5t66 27.5q19 0 36 -7.5t29.5 -20t20 -30t7.5 -36.5q0 -20 -7.5 -37t-20 -29.5t-29.5 -20t-36 -7.5zM394 293q-17 0 -30.5 -12.5t-13.5 -32.5q0 -18 13 -31.5t31 -13.5t31 12.5t13 32.5q0 18 -12 31.5t-32 13.5z" />
<glyph unicode="&#x26;" horiz-adv-x="463" d="M443 1q-110 100 -195 203q-36 44 -71 93t-62 99t-43.5 100t-16.5 97q0 26 9.5 52t27.5 46.5t45.5 33.5t64.5 13q36 0 61 -13t40.5 -33.5t22 -46t6.5 -51.5q0 -45 -17.5 -84.5t-44 -76.5t-57.5 -71t-57 -67t-43.5 -65t-17.5 -64q0 -27 7 -44t17.5 -26.5t23 -13.5t25.5 -4 q22 0 43 11t39 28.5t34 40.5t29 47q31 56 54 128q17 -18 31 -31q6 -6 11.5 -11t10.5 -10l10 -10q-7 -18 -18 -45t-27.5 -57t-38.5 -60t-50.5 -54t-64 -39.5t-78.5 -15.5q-39 0 -65 15t-41.5 38.5t-22.5 51t-7 51.5q0 29 11 61t28 61.5t37 54.5t38 40q17 15 39 42t41.5 57 t33 59.5t13.5 49.5q0 22 -4.5 36.5t-12.5 23.5t-19 13t-24 4q-12 0 -24 -3t-22 -11.5t-16 -24.5t-6 -42q0 -30 13.5 -66t35.5 -75t50.5 -79t57.5 -77q69 -87 156 -178v-101z" />
<glyph unicode="'" horiz-adv-x="191" d="M146 738v-100q0 -21 -11 -38q-9 -14 -29.5 -25.5t-59.5 -11.5v19q16 1 28 7q11 5 20 16.5t9 33.5l-57 -1v100h100z" />
<glyph unicode="(" d="M171 369q0 -53 1.5 -112t7.5 -109.5t19 -85t36 -36.5v-54q-46 0 -76 21t-47 68t-24 122.5t-7 185.5v1q0 109 7 185t24 123t47 68t76 21v-54q-15 -1 -26 -17.5t-18 -43t-11 -61t-6 -72t-2.5 -76t-0.5 -73.5v-1z" />
<glyph unicode=")" d="M140 370q0 35 -0.5 73.5t-2.5 76t-6 72t-11 61t-18 42.5t-26 18v54q46 0 76 -21t47 -68t24 -123t7 -185v-1q0 -110 -7 -185.5t-24 -122.5t-47 -68t-76 -21v54q23 2 36 36.5t19 85t7.5 109.5t1.5 112v1v0z" />
<glyph unicode="*" horiz-adv-x="274" d="M260 409q-16 1 -33 3q-14 2 -31 2.5t-31 2.5q14 -14 26.5 -25t23.5 -19q12 -10 23 -17l-29 -29q-10 12 -21 25q-9 11 -19.5 24t-20.5 24q1 -20 2 -37t3 -30q2 -15 3 -28h-40q1 15 3 32q2 14 2.5 30.5t2.5 31.5q-10 -11 -20.5 -23.5t-19.5 -23.5q-11 -12 -21 -25l-29 29 q11 7 23 17q21 16 50 44q-15 -2 -31.5 -2.5t-30.5 -2.5q-17 -2 -33 -3v40q13 -1 28 -3q13 -2 30 -3t37 -2q-11 10 -24 21t-24 20q-13 11 -25 21l29 28q7 -11 17 -23q8 -11 19 -23.5t25 -26.5q-2 14 -2.5 31t-2.5 31q-2 17 -3 33h40q-1 -14 -3 -29q-2 -14 -3 -30.5t-2 -36.5 q13 14 24.5 27t19.5 24q10 12 17 23l29 -28q-13 -10 -25 -21q-11 -9 -24 -20t-24 -21q19 1 36.5 2t30.5 3q15 2 28 3v-40z" />
<glyph unicode="+" horiz-adv-x="379" d="M362 253h-123v-157h-101l1 157h-123v103h123v157h100v-157h123v-103z" />
<glyph unicode="," horiz-adv-x="191" d="M146 100v-100q-2 -21 -13 -38q-10 -14 -29.5 -25.5t-57.5 -11.5v20q16 0 29 6q11 5 20 16t9 33h-58v100h100z" />
<glyph unicode="-" d="M254 124h-187v100h187v-100v0z" />
<glyph unicode="." horiz-adv-x="182" d="M136 0h-100v100h100v-100v0z" />
<glyph unicode="/" horiz-adv-x="348" d="M114 0h-94l199 741l94 -1l-199 -740v0z" />
<glyph unicode="0" horiz-adv-x="350" d="M329 164q0 -85 -43 -127.5t-112 -42.5q-67 0 -110.5 42t-43.5 128v406q0 86 43.5 129.5t110.5 43.5q68 0 111.5 -43t43.5 -129v-407zM174 78q38 0 53 26.5t15 63.5v400q0 38 -15 63.5t-53 25.5q-37 0 -52 -25.5t-15 -63.5v-400q0 -18 3.5 -34.5t11.5 -28.5t20.5 -19.5 t31.5 -7.5z" />
<glyph unicode="1" horiz-adv-x="251" d="M194 739v-739h-87v659h-85v80h172z" />
<glyph unicode="2" horiz-adv-x="342" d="M324 80v-80h-303v73q0 39 16.5 78t41 77.5t53.5 78t53.5 79t41 80t16.5 81.5v25q-1 51 -19 69t-49 18q-41 0 -54 -23.5t-13 -64.5v-79h-87v91q0 32 9.5 61.5t28.5 52t48 36t68 13.5q36 0 65 -12.5t49 -34t30.5 -50.5t10.5 -63v-50q0 -45 -16 -89t-40 -86t-52 -81 t-51.5 -74.5t-39.5 -67.5t-16 -58h209z" />
<glyph unicode="3" horiz-adv-x="350" d="M309 316q0 -21 0.5 -50t0 -59t-2 -57.5t-5.5 -43.5q-8 -32 -23 -53.5t-35 -34t-44 -18t-49 -5.5q-37 0 -65 13t-47 35t-29 51t-10 61h88q0 -28 13.5 -51.5t48.5 -23.5q21 0 34.5 7.5t22 19t12 24.5t3.5 25v106v65q0 40 -19 60t-53 20q-15 0 -27 -7.5t-19 -15.5l-57 65 l142 210h-184v80h288v-80l-109 -171q16 0 37.5 -8.5t40.5 -28.5t32.5 -53t14.5 -82z" />
<glyph unicode="4" horiz-adv-x="355" d="M346 237v-80h-35v-157h-86v157h-210v79l140 509h87l-131 -508h114v181h86v-181h35v0z" />
<glyph unicode="6" horiz-adv-x="338" d="M322 156q0 -33 -11 -62t-31 -51.5t-50 -35.5t-67 -13t-65 13t-47 35.5t-28.5 52t-9.5 61.5v165v27q0 9 5.5 30.5t15 51t21.5 63.5t24 69q29 81 66 177h87l-93 -258q3 3 11.5 6t19.5 3q31 0 59 -10t48.5 -31.5t32.5 -54.5t12 -77v-161zM235 321q0 45 -15 66.5t-57 21.5 q-35 -1 -49 -22.5t-14 -72.5v-159q0 -14 3.5 -27.5t11 -24t19.5 -17t29 -6.5q21 0 34.5 7.5t22 19t12 24.5t3.5 25v165z" />
<glyph unicode="7" horiz-adv-x="333" d="M19 739h300v-80l-209 -659h-91l210 659h-210v80v0z" />
<glyph unicode="8" horiz-adv-x="352" d="M270 406q29 -19 45.5 -47t15.5 -64v-129q0 -38 -8 -69.5t-26.5 -54t-48 -35.5t-72.5 -13q-78 0 -116 48.5t-38 123.5v130q0 36 10 64t39 46q-18 12 -29 34.5t-11 50.5v122q0 27 11.5 51t31 41.5t46 28t56.5 10.5t56.5 -10.5t47 -28t32 -41t11.5 -50.5v-122 q0 -29 -17.5 -51.5t-35.5 -34.5zM176 658q-23 0 -42.5 -14t-19.5 -53v-99q0 -23 19 -37.5t43 -15.5q22 0 42.5 14.5t20.5 37.5v100q0 20 -5.5 33t-14.5 20.5t-20 10.5t-23 3zM244 296q0 32 -19.5 50.5t-48.5 18.5t-48 -18t-19 -51v-130q0 -45 14.5 -65.5t52.5 -21.5 q68 0 68 86v131z" />
<glyph unicode="9" horiz-adv-x="333" d="M15 583q0 33 11 62t31 51.5t49.5 35.5t67.5 13q37 0 65 -13t47 -35.5t28.5 -52t9.5 -61.5v-168v-27q0 -12 -6 -35t-15.5 -52.5t-21.5 -63.5t-25 -67q-30 -78 -68 -170h-87l101 262q-3 -3 -13.5 -9.5t-21.5 -6.5q-32 0 -59.5 10t-48 32t-32.5 54.5t-12 77.5v163zM102 415 q0 -45 15 -66.5t57 -20.5q35 0 49 21.5t14 72.5v162q0 28 -14.5 51.5t-48.5 23.5q-21 0 -34.5 -7.5t-22 -19t-12 -24.5t-3.5 -25v-168z" />
<glyph unicode=":" horiz-adv-x="191" d="M145 0h-100v100h100v-100zM145 460h-100v100h100v-100z" />
<glyph unicode=";" horiz-adv-x="192" d="M46 461v100h100v-100h-100zM146 101v-100q-2 -21 -13 -38q-10 -14 -29.5 -25.5t-57.5 -11.5v20q16 0 29 6q11 5 20 16t9 33h-58v100h100z" />
<glyph unicode="&#x3c;" d="M293 397l-171 -99l171 -98l-31 -53l-201 116v0v0l-31 18v35l31 17v1v0l201 116l31 -53v0z" />
<glyph unicode="=" horiz-adv-x="326" d="M283 94h-245v81h245l-245 -81v81h245v-81zM285 294h-245v81h245l-245 -81v81h245v-81z" />
<glyph unicode="&#x3e;" d="M31 397l31 53l201 -116v0v-1l31 -17v-35l-31 -18v0v0l-201 -116l-31 53l171 98l-171 99v0z" />
<glyph unicode="?" horiz-adv-x="333" d="M20 555v34q0 36 12 65t32.5 49.5t46.5 31.5t55 11q22 0 47.5 -7t47.5 -25t36 -48t14 -76q0 -42 -18 -79.5t-39.5 -73t-40 -70t-18.5 -69.5v-109h-76v144q0 23 17 55.5t37.5 67.5t37.5 70.5t17 64.5q0 24 -6 38.5t-15 22t-20 10t-21 2.5q-17 0 -29 -8t-19.5 -19.5 t-11 -24.5t-3.5 -23v-25v-9h-83zM206 100v-100h-100v100h100z" />
<glyph unicode="@" horiz-adv-x="485" d="M366 101q-30 0 -47 14.5t-25 31.5q-10 20 -13 47q-12 -13 -27 -18.5t-32 -5.5q-18 0 -37.5 8t-35.5 24t-26.5 40.5t-10.5 57.5v67v66q0 33 10 57.5t25.5 41t35 25t39.5 8.5q17 0 33 -6.5t26 -17.5v21h69v-311q0 -38 2 -57.5t17 -20.5q17 0 23.5 49t6.5 156 q0 62 -9.5 115.5t-28 93t-47.5 62t-68 22.5q-36 0 -65.5 -20.5t-50.5 -59t-32 -94t-10 -124.5q1 -71 11.5 -127.5t30.5 -95.5t50 -60t71 -21q23 0 35.5 4.5t20.5 11.5q0 1 8.5 -2.5t19.5 -8.5l28 -12q-2 -18 -15 -32q-11 -12 -35.5 -22t-70.5 -10q-37 0 -77 17.5t-73 60.5 t-54.5 115t-22.5 181q0 84 15 152t44 116.5t72 74.5t100 26q45 0 79 -16.5t59 -43t41.5 -61.5t26.5 -72t14 -74.5t4 -68.5q0 -14 1.5 -41.5t1 -61.5t-4.5 -69.5t-15.5 -64.5t-32.5 -48t-54 -19zM282 404q0 14 -2.5 29t-8 27.5t-15 20.5t-23.5 8q-15 0 -24 -8t-14.5 -20 t-7 -27t-1.5 -30v-76q0 -14 1.5 -28.5t6.5 -26.5t14.5 -20t25.5 -8q14 0 23.5 8t15 20t7.5 26.5t2 28.5v76z" />
<glyph unicode="A" horiz-adv-x="357" d="M235 145h-118l-20 -145h-90l104 740h110l126 -740h-87zM222 225l-51 310l-2 -11l-41 -299h94z" />
<glyph unicode="B" horiz-adv-x="386" d="M350 493q0 -29 -9.5 -48t-20.5 -30q-13 -13 -30 -20q19 -10 35 -26q13 -14 24 -35.5t11 -51.5v-112q-1 -85 -45 -127.5t-113 -42.5h-152v740h142q34 0 63 -10t50 -31t33 -53t12 -75v-78zM140 661v-230h59q23 0 41.5 16.5t19.5 45.5v75q0 31 -6.5 49.5t-17 28.5 t-22.5 12.5t-22 2.5h-52zM202 80q9 0 20.5 1t22 9t18 26.5t7.5 54.5v101q0 8 -2 21.5t-8.5 26.5t-18.5 22.5t-33 9.5h-68v-272h62z" />
<glyph unicode="C" horiz-adv-x="370" d="M346 247v-82q0 -85 -43.5 -128t-112.5 -42q-67 0 -106.5 41.5t-39.5 128.5v206v202q0 87 39.5 129.5t106.5 42.5q34 0 62.5 -10.5t49.5 -32t32.5 -53.5t11.5 -75v-83h-91v83q0 38 -14.5 63t-47.5 24q-32 -1 -45.5 -25t-13.5 -62v-40v-44v-53v-67v-204q0 -36 13 -61 t46 -25q32 0 47 24.5t15 61.5v43q0 17 1 38h90z" />
<glyph unicode="D" horiz-adv-x="409" d="M366 366v-195q0 -42 -12 -74t-33.5 -53.5t-50.5 -32.5t-63 -11h-157v740h157q34 0 63 -10.5t50.5 -32t33.5 -53.5t12 -75v-203zM275 364v204q0 31 -6.5 49.5t-17 28.5t-22.5 12.5t-22 2.5h-67v-583h26h22t19 1q10 0 22 1t22.5 9.5t17 27.5t6.5 54v193z" />
<glyph unicode="E" horiz-adv-x="300" d="M275 740v-80h-135v-232h121v-80h-121v-268h135v-80h-225v740h225z" />
<glyph unicode="F" horiz-adv-x="300" d="M275 660h-135v-236l123 1v-80l-123 -1v-344h-90v740l225 1v-81z" />
<glyph unicode="G" horiz-adv-x="405" d="M360 165v-12v-153h-81q4 8 6 13.5t9 21.5q-22 -28 -47.5 -34t-45.5 -6q-33 0 -62 10.5t-50 31.5t-33 53t-12 75v206v202q0 43 12 75.5t33 54t50 32t62 10.5q72 -1 111.5 -52t39.5 -138h-90q0 19 -3 38t-10 34t-18.5 24.5t-29.5 9.5q-37 0 -52 -24.5t-15 -62.5v-40v-44 v-53v-67v-204q0 -36 14.5 -61t52.5 -25t53 24.5t15 61.5v174h-98v80h189v-255z" />
<glyph unicode="H" horiz-adv-x="414" d="M140 425h134v315h90v-740h-90l1 345h-135v-345h-90v740h90v-315z" />
<glyph unicode="I" horiz-adv-x="190" d="M140 0h-90v740h90v-740z" />
<glyph unicode="J" horiz-adv-x="283" d="M233 142q0 -42 -12 -70.5t-33.5 -45.5t-50.5 -24t-63 -7q-26 0 -50 7v83q15 -3 22 -5t28 -2q38 0 53 14t15 51q1 45 0.5 106t-0.5 120v371h91v-369v-229z" />
<glyph unicode="K" horiz-adv-x="371" d="M362 0h-105l-78 235l-39 105v-339h-90v740h90v-354l42 110l85 243h94l-131 -369z" />
<glyph unicode="L" horiz-adv-x="283" d="M274 80v-80h-134h-6h-84v740h90v-660h134z" />
<glyph unicode="M" horiz-adv-x="511" d="M469 740v-740h-90l3 397v43l-76 -440h-95l-76 440v-44l-1 -396h-90v740h88l125 -559l126 559h86z" />
<glyph unicode="N" horiz-adv-x="422" d="M375 740v-740h-91l-151 494l2 -17l-1 -477h-90v740h90l153 -492l-2 23v469h90z" />
<glyph unicode="O" horiz-adv-x="405" d="M361 165q0 -42 -12 -74t-33.5 -53.5t-50.5 -32t-63 -10.5q-33 0 -62 10.5t-50 31.5t-33 53t-12 75v206v202q0 43 12 75.5t33 54t50 32.5t62 11q34 0 63 -10.5t50.5 -32t33.5 -54t12 -75.5v-203v-206zM202 80q38 0 53 24.5t15 61.5q1 45 0.5 94.5t-0.5 108.5v205 q0 38 -15 62.5t-53 24.5q-37 0 -52 -24.5t-15 -62.5v-40v-44v-53v-67v-204q0 -36 14.5 -61t52.5 -25z" />
<glyph unicode="P" horiz-adv-x="405" d="M361 412q0 -40 -15 -65.5t-36.5 -40.5t-46.5 -20.5t-45 -5.5l-78 1v-281h-90v740h153q78 0 118 -41t40 -128v-159zM271 568q0 31 -6.5 49.5t-17 28.5t-22.5 12.5t-22 2.5h-63v-301h62q29 0 48.5 11.5t20.5 40.5v156z" />
<glyph unicode="Q" horiz-adv-x="416" d="M366 165q0 -45 -13 -77.5t-36 -53.5l48 -109h-94l-30 72q-8 -1 -16.5 -1.5t-17.5 -0.5q-33 0 -62 10.5t-50 31.5t-33 53t-12 75v206v202q0 43 12 75.5t33 54t50 32.5t62 11q34 0 63 -10.5t50.5 -32t33.5 -54t12 -75.5v-203v-206zM207 80q38 0 53 24.5t15 61.5 q1 45 0.5 94.5t-0.5 108.5v205q0 38 -15 62.5t-53 24.5q-37 0 -52 -24.5t-15 -62.5v-40v-44v-53v-67v-204q0 -36 14.5 -61t52.5 -25z" />
<glyph unicode="R" horiz-adv-x="367" d="M360 0h-66q-16 1 -32 30t-16 75v104q0 36 -16 62t-54 25h-26h-35v-296h-90v740h153q81 0 119.5 -41.5t38.5 -128.5v-23v-10v-15v-37q0 -99 -57 -139q26 -20 41.5 -54t15.5 -81v-105q0 -20 0.5 -33.5t2.5 -24.5t7 -21t14 -23v-4zM115 661v-277l63 1q6 0 17.5 1t22.5 9.5 t19 27t8 53.5v93q0 31 -6.5 49.5t-16.5 28t-22 12t-22 2.5h-63z" />
<glyph unicode="S" horiz-adv-x="369" d="M31 587q0 31 7 59.5t24 50.5t45.5 35t72.5 13q42 0 70.5 -11.5t45.5 -28.5t25.5 -37.5t11.5 -39t3 -32v-17.5v-75h-92v75q1 28 -13 51t-50 24q-18 0 -29.5 -6.5t-18 -17t-9 -23.5t-2.5 -26q0 -26 16.5 -55t41 -60.5t52.5 -66t52.5 -72.5t41 -80.5t16.5 -88.5 q0 -34 -9.5 -63.5t-29 -51.5t-49.5 -35t-70 -13q-5 0 -19 0.5t-32 4t-37 13t-35 27.5t-26 46t-10 71v60h91v-60q0 -38 17.5 -54.5t50.5 -16.5q28 0 47.5 16t19.5 49q0 31 -16 63.5t-40.5 66t-53 69t-53 74t-41 79t-16.5 84.5z" />
<glyph unicode="T" horiz-adv-x="333" d="M324 661h-113v-661h-90v661h-112v80h315v-80z" />
<glyph unicode="U" horiz-adv-x="410" d="M366 740v-369v-206q0 -42 -12 -74t-33.5 -53.5t-50.5 -32t-63 -10.5q-33 0 -62 10.5t-50 31.5t-33 53t-12 75v206v369h90v-147v-61.5v-61v-55.5v-45v-204q0 -36 14.5 -61t52.5 -25t53 24.5t15 61.5q1 45 0.5 94.5t-0.5 108.5v371h91z" />
<glyph unicode="V" horiz-adv-x="379" d="M9 740h87l92 -555l92 555h90l-123 -739h-112l-126 739v0z" />
<glyph unicode="W" horiz-adv-x="560" d="M461 741h90l-104 -741h-115l-52 470l-52 -470h-114l-105 741h87l71 -555l72 555h79l71 -555l72 555v0z" />
<glyph unicode="X" horiz-adv-x="385" d="M249 378l125 -378h-96l-60 192l-18 62l-21 -63l-71 -191h-99l132 359l-105 380h94l47 -186l18 -77l19 79l48 184h97z" />
<glyph unicode="Y" horiz-adv-x="378" d="M270 740h98l-127 -391l-1 -349h-91v355l-141 385h98l90 -252l74 252v0z" />
<glyph unicode="Z" horiz-adv-x="362" d="M121 80h218v-80h-316v80l212 580h-203v80h303v-80l-214 -580v0z" />
<glyph unicode="[" d="M226 55v-82h-134v791h134v-83h-44v-626h44v0z" />
<glyph unicode="&#xad;" d="M254 124h-187v100h187v-100v0z" />
<glyph unicode="&#x2000;" horiz-adv-x="394" />
<glyph unicode="&#x2001;" horiz-adv-x="789" />
<glyph unicode="&#x2002;" horiz-adv-x="394" />
<glyph unicode="&#x2003;" horiz-adv-x="789" />
<glyph unicode="&#x2004;" horiz-adv-x="263" />
<glyph unicode="&#x2005;" horiz-adv-x="197" />
<glyph unicode="&#x2006;" horiz-adv-x="131" />
<glyph unicode="&#x2007;" horiz-adv-x="131" />
<glyph unicode="&#x2008;" horiz-adv-x="98" />
<glyph unicode="&#x2009;" horiz-adv-x="157" />
<glyph unicode="&#x200a;" horiz-adv-x="43" />
<glyph unicode="&#x2010;" d="M254 124h-187v100h187v-100v0z" />
<glyph unicode="&#x2011;" d="M254 124h-187v100h187v-100v0z" />
<glyph unicode="&#x2012;" d="M254 124h-187v100h187v-100v0z" />
<glyph unicode="&#x2013;" horiz-adv-x="631" d="M567 124h-500v100h500v-100v0z" />
<glyph unicode="&#x2014;" horiz-adv-x="1131" d="M1067 124h-1000v100h1000v-100v0z" />
<glyph unicode="&#x202f;" horiz-adv-x="157" />
<glyph unicode="&#x205f;" horiz-adv-x="197" />
<glyph unicode="&#x25fc;" horiz-adv-x="500" d="M0 0v0v0v0v0z" />
</font>
</defs>
</svg>
